PathFileType	3	(X/Y/Z)	RCH0000002 BBF 14.c3d
DataRate	CameraRate	NumFrames	NumMarkers	Units	OrigDataRate	OrigDataStartFrame	OrigNumFrames
100.0	100.0	7	23	mm	100.0	84	502
Frame#	Time	RASI			LPAT			LKNE			LANK			LMED			LHEE			RPAT			RKNE			RANK			RMED			RHEE			RTOE			LTOE			MAN			LASI			T2			T10			LPSI			RPSI			RTHI			LTHI			RTIB			LTIB			
		X1	Y1	Z1	X2	Y2	Z2	X3	Y3	Z3	X4	Y4	Z4	X5	Y5	Z5	X6	Y6	Z6	X7	Y7	Z7	X8	Y8	Z8	X9	Y9	Z9	X10	Y10	Z10	X11	Y11	Z11	X12	Y12	Z12	X13	Y13	Z13	X14	Y14	Z14	X15	Y15	Z15	X16	Y16	Z16	X17	Y17	Z17	X18	Y18	Z18	X19	Y19	Z19	X20	Y20	Z20	X21	Y21	Z21	X22	Y22	Z22	X23	Y23	Z23	

84	0.830	-2359.82004	-195.47088	644.31754	-2466.70693	-62.44093	369.38834	-2524.40190	-5.51326	344.46170	-2620.03291	-6.87883	81.53417	-2612.53244	-74.17823	102.54395	-2651.41861	-44.15901	122.59833	-2226.24770	-143.18972	427.26783	-2258.89290	-197.17079	380.34812	-2347.04887	-225.85712	124.94415	-2361.52603	-156.67303	133.50087	-2388.96809	-195.59219	161.20013	-2306.41098	-187.36812	106.86827	-2570.04901	-42.89842	69.15796	-2331.04598	-87.66567	947.98953	-2417.62051	-27.90721	652.00129	-2462.79144	-111.77723	982.25126	-2471.12226	-136.61799	795.35989	-2502.97253	-119.02730	697.56580	-2482.53574	-184.38683	691.84393	-2292.10447	-271.12072	484.16500	-2503.13637	56.67528	471.67771	-2290.64657	-274.94575	279.37113	-2570.96183	59.26557	233.41290	
85	0.840	-2346.29242	-195.10844	640.61205	-2458.18349	-62.41843	366.99773	-2516.43380	-5.64866	343.15911	-2619.09636	-7.18700	82.97034	-2610.87835	-74.47671	103.57285	-2649.44949	-44.79124	124.65777	-2216.72369	-138.33869	423.13865	-2246.93176	-193.28881	375.78864	-2319.87414	-225.69618	118.41312	-2337.27465	-157.69084	125.40197	-2364.34815	-197.59903	152.35374	-2280.39021	-185.85373	101.67257	-2569.46806	-42.89920	69.32871	-2317.42378	-90.27574	944.29775	-2404.25768	-27.59108	649.55552	-2449.08569	-114.39451	978.96889	-2458.02728	-137.80955	792.11864	-2489.61520	-118.96229	694.30927	-2469.22730	-184.37229	687.86648	-2279.11475	-267.88957	479.41708	-2492.36365	57.13710	469.49344	-2269.82560	-272.39858	274.88237	-2566.54068	58.91306	233.53570	
86	0.850	-2332.76664	-194.71783	636.94694	-2449.30916	-62.41708	364.42830	-2508.12474	-5.83879	341.66148	-2618.00404	-7.54449	84.48480	-2609.08189	-74.83029	104.64116	-2647.25374	-45.45987	126.81165	-2207.26432	-133.39067	418.81357	-2235.02605	-189.39001	371.14217	-2293.72087	-225.65127	111.98029	-2314.00286	-158.80205	117.48034	-2340.62198	-199.68249	143.73860	-2255.40379	-184.48686	96.54710	-2568.80879	-42.97399	69.50296	-2303.89816	-92.85215	940.66108	-2390.93864	-27.26567	647.03120	-2435.49071	-117.00030	975.66521	-2444.92779	-138.92884	788.84639	-2476.29055	-118.88036	691.02516	-2455.92329	-184.34137	683.95220	-2266.01727	-264.56505	474.67672	-2481.49238	57.53701	467.16966	-2249.46477	-269.82986	270.38988	-2561.79048	58.50851	233.57377	
87	0.860	-2319.22925	-194.28956	633.39116	-2439.73170	-62.45998	361.55554	-2499.12603	-6.13324	339.82277	-2616.52885	-7.98866	86.15339	-2606.93112	-75.28203	105.78993	-2644.54847	-46.19194	129.14311	-2197.92316	-128.32753	414.16682	-2223.24476	-185.50688	366.36840	-2269.49398	-225.81803	105.75441	-2292.56699	-160.07937	109.91996	-2318.58214	-201.89853	135.58184	-2232.35995	-183.39305	91.57353	-2567.91029	-43.17919	69.69682	-2290.53502	-95.35564	937.15300	-2377.67466	-26.93485	644.37977	-2422.08471	-119.56970	972.34559	-2431.79969	-139.90530	785.54437	-2463.00438	-118.76707	687.71985	-2442.60861	-184.28047	680.19114	-2252.74495	-261.11585	469.97537	-2470.39274	57.81281	464.61202	-2229.99712	-267.25403	265.90846	-2556.35400	58.00766	233.47033	
88	0.870	-2305.66983	-193.82587	630.01774	-2429.16615	-62.56501	358.29495	-2489.15118	-6.56872	337.53891	-2614.44301	-8.54101	88.03716	-2604.21995	-75.85823	107.05585	-2641.06606	-46.99719	131.71608	-2188.72918	-123.19418	409.15620	-2211.65179	-181.69561	361.47130	-2247.89570	-226.25795	99.84745	-2273.61509	-161.56110	102.89319	-2298.84302	-204.26646	128.08733	-2211.95114	-182.66133	86.83886	-2566.60562	-43.55411	69.92809	-2277.37838	-97.74990	933.84075	-2364.46706	-26.60871	641.57153	-2408.92105	-122.07467	969.02601	-2418.61950	-140.67797	782.22865	-2449.75712	-118.60997	684.41345	-2429.26942	-184.17786	676.67262	-2239.28136	-257.55895	465.35353	-2458.94745	57.91043	461.76077	-2211.78177	-264.70366	261.46918	-2549.91760	57.38108	233.18111	
89	0.880	-2292.09074	-193.34295	626.90508	-2417.42115	-62.74409	354.61642	-2478.00090	-7.16598	334.76194	-2611.52691	-9.20397	90.17702	-2600.75608	-76.56497	108.46843	-2636.56840	-47.86573	134.56828	-2179.69210	-118.10783	403.83547	-2200.31354	-178.04130	356.50680	-2229.38388	-226.99191	94.37194	-2257.54744	-163.24583	96.55488	-2281.80539	-206.76474	121.42662	-2194.61253	-182.33644	82.43340	-2564.72471	-44.11618	70.21653	-2264.45499	-100.00128	930.78585	-2351.31410	-26.30468	638.60300	-2396.03201	-124.48233	965.73752	-2405.37420	-141.19876	778.93531	-2436.55138	-118.39968	681.14495	-2415.90251	-184.02470	673.48535	-2225.67610	-253.96920	460.86439	-2447.06485	57.78707	458.60098	-2195.09196	-262.23541	257.12065	-2542.23316	56.61721	232.68092	
90	0.890	-2278.51136	-192.87084	624.13702	-2404.40669	-63.00401	350.55142	-2465.57073	-7.92957	331.50646	-2607.57614	-9.96122	92.59220	-2596.36499	-77.38852	110.04835	-2630.85613	-48.77017	137.70902	-2170.81153	-113.25191	398.34553	-2189.30506	-174.65803	351.57881	-2214.16456	-228.00185	89.43418	-2244.51459	-165.09614	91.03509	-2267.65090	-209.33735	115.73066	-2180.51910	-182.41879	78.44464	-2562.09541	-44.85934	70.58448	-2251.77897	-102.07846	928.04594	-2338.21488	-26.04741	635.50053	-2383.43343	-126.75420	962.52851	-2392.06640	-141.43426	775.72241	-2423.39551	-118.13078	677.97460	-2402.51939	-183.81598	670.71753	-2212.04412	-250.47793	456.57495	-2434.68464	57.41293	455.16615	-2180.11185	-259.93218	252.92535	-2533.12836	55.72181	231.96953	
